<svg xmlns="http://www.w3.org/2000/svg" width="486.67" height="345.073" viewBox="0 0 486.67 345.073">
  <g id="cart-trolley-icon1" transform="translate(-42 -230.33)">
    <line id="Line_2" data-name="Line 2" x2="86.661" transform="translate(54.5 245.5)" fill="none" stroke="#000" stroke-linecap="round" stroke-width="25"/>
    <line id="Line_3" data-name="Line 3" x2="30" y2="86" transform="translate(143.5 246.25)" fill="none" stroke="#000" stroke-linecap="round" stroke-width="25"/>
    <g id="Path_12" data-name="Path 12" transform="translate(184 324.801)" stroke-linecap="round" stroke-linejoin="round">
      <path d="M 261.3970947265625 193.0390625 L 252.7015838623047 193.0390625 L 53.88873672485352 193.0390625 L 44.57489395141602 193.0390625 L 41.91094589233398 184.1142730712891 L -11.97778987884521 3.575223207473755 L -16.77605247497559 -12.49998760223389 L -1.413445716025308e-07 -12.49998760223389 L 319.6701049804688 -12.49998760223389 L 337.6390380859375 -12.49998760223389 L 331.3898010253906 4.347275733947754 L 264.4212646484375 184.8863220214844 L 261.3970947265625 193.0390625 Z" stroke="none"/>
      <path d="M 0 0 L 53.88873291015625 180.5390777587891 L 252.7015838623047 180.5390777587891 L 319.6701049804688 0 L 0 0 M 0 -25 L 319.6701049804688 -25 C 327.8538513183594 -25 335.5194396972656 -20.99459838867188 340.1928405761719 -14.27645874023438 C 344.8662414550781 -7.558395385742188 345.9556579589844 1.02166748046875 343.1095275878906 8.694534301757812 L 276.1409912109375 189.2336120605469 C 272.50537109375 199.0348052978516 263.1553344726562 205.5390777587891 252.7015838623047 205.5390777587891 L 53.88873291015625 205.5390777587891 C 42.83566284179688 205.5390777587891 33.09451293945312 198.2808074951172 29.93310546875 187.6895446777344 L -23.95562744140625 7.150466918945312 C -26.21414184570312 -0.41619873046875 -24.76507568359375 -8.605133056640625 -20.04693603515625 -14.93719482421875 C -15.32888793945312 -21.26925659179688 -7.89654541015625 -25 0 -25 Z" stroke="none" fill="#000"/>
    </g>
    <g id="Ellipse_6" data-name="Ellipse 6" transform="translate(257.366 511.404)" fill="none" stroke="#000" stroke-width="20">
      <circle cx="32" cy="32" r="32" stroke="none"/>
      <circle cx="32" cy="32" r="22" fill="none"/>
    </g>
    <g id="Ellipse_7" data-name="Ellipse 7" transform="translate(365.859 511.404)" fill="none" stroke="#000" stroke-width="20">
      <circle cx="32" cy="32" r="32" stroke="none"/>
      <circle cx="32" cy="32" r="22" fill="none"/>
    </g>
  </g>
</svg>
